<?xml version="1.0" encoding="UTF-8" standalone="no"?>
<!DOCTYPE svg PUBLIC "-//W3C//DTD SVG 1.1//EN" "http://www.w3.org/Graphics/SVG/1.1/DTD/svg11.dtd">
<svg version="1.1" xmlns="http://www.w3.org/2000/svg" xmlns:xlink="http://www.w3.org/1999/xlink" preserveAspectRatio="xMidYMid meet" viewBox="0 0 640 640" width="640" height="640"><defs><path d="M510.65 480.64C511.2 472.74 511.2 464.81 510.65 456.91C507.34 456.91 490.8 456.91 461.04 456.91C460.42 390.45 460.07 353.53 460 346.14C460 346.14 483.26 369.88 496.18 397.57C496.18 397.57 511.68 456.91 511.68 456.91C513.06 456.91 519.95 456.91 532.36 456.91L532.36 502.4L506.51 502.4C508.81 492.8 510.19 485.55 510.65 480.64ZM348.37 639.87C217.19 643.61 176.53 563.79 164.38 538.01C158.07 524.61 145.01 486.01 148.33 451.52C151.43 419.36 166.45 390.65 166.45 390.65C168.52 390.65 178.85 390.65 197.46 390.65L197.46 502.4L246.04 502.4C246.66 387.88 247 324.25 247.07 311.53C247.07 311.53 256.38 306.84 264.64 303.62C268.02 302.41 271.47 301.42 274.98 300.65C274.98 294.65 274.98 264.65 274.98 210.65L248.11 210.65L248.11 171.09C256.17 171.09 260.65 171.09 261.54 171.09C261.54 171.09 254.48 137.3 288.42 137.47C288.42 137.47 315.29 171.09 315.29 171.09C317.46 171.09 334.83 171.09 337 171.09C337 171.09 336.96 165.47 340.1 162.19C342.57 159.62 348.37 159.23 348.37 159.23C351.13 159.1 353.8 160.2 355.61 162.19C357.74 164.64 356.64 171.09 356.64 171.09C360.22 171.09 378.14 171.09 410.39 171.09L410.39 210.65L384.55 210.65C384.55 264.65 384.55 294.65 384.55 300.65C384.55 300.65 392.63 302.75 400.05 305.6C403.61 307.02 407.06 308.68 410.39 310.54C410.39 323.33 410.39 387.28 410.39 502.4C468.06 502.4 500.11 502.4 506.51 502.4C506.51 502.4 498.66 563.27 440.36 603.28C418.53 618.26 384.1 638.85 348.37 639.87ZM411.42 252.19L460 252.19C460 307.97 460 338.96 460 345.16C452.53 338.08 444.59 331.47 436.23 325.38C428.34 319.87 420.05 314.91 411.42 310.54C411.42 302.76 411.42 283.31 411.42 252.19ZM363.89 99.39C363.89 87.65 373.84 78.13 386.11 78.13C398.38 78.13 408.32 87.65 408.32 99.39C408.32 111.14 398.37 120.66 386.1 120.66C386.1 120.66 386.1 120.66 386.1 120.66C373.83 120.65 363.88 111.13 363.89 99.39ZM260.53 42.52C260.53 19.03 280.43 0 304.98 0C329.51 0 349.4 19.04 349.4 42.53C349.4 66.02 329.5 85.06 304.96 85.05C304.96 85.05 304.96 85.05 304.96 85.05C280.42 85.05 260.52 66 260.53 42.52ZM116.83 390.65L116.83 345.16L197.46 345.16L196.42 298.67L116.83 298.67L116.83 252.19L246.04 252.19C246.04 287.79 246.04 307.57 246.04 311.53C246.04 311.53 220.03 325.09 201.59 343.17C179.97 364.4 165.41 390.65 165.41 390.65C158.94 390.65 142.74 390.65 116.83 390.65Z" id="fAtEZMbQ"></path></defs><g><g><g><use xlink:href="#fAtEZMbQ" opacity="1" fill="#ff002a" fill-opacity="1"></use><g><use xlink:href="#fAtEZMbQ" opacity="1" fill-opacity="0" stroke="#000000" stroke-width="1" stroke-opacity="0"></use></g></g></g></g></svg>