<svg xmlns="http://www.w3.org/2000/svg" width="300" height="200" viewBox="0 0 1500 1000">
    <metadata><?xpacket begin="﻿" id="W5M0MpCehiHzreSzNTczkc9d"?>
        <!--<x:xmpmeta xmlns:x="adobe:ns:meta/" x:xmptk="Adobe XMP Core 5.6-c142 79.160924, 2017/07/13-01:06:39        ">-->
        <!--   <rdf:RDF xmlns:rdf="http://www.w3.org/1999/02/22-rdf-syntax-ns#">-->
        <!--      <rdf:Description rdf:about=""/>-->
        <!--   </rdf:RDF>-->
        <!--</x:xmpmeta>-->


        <?xpacket end="w"?></metadata>
    <defs>
        <style>
            .cls-1 {
            fill: #ff002a;
            fill-rule: evenodd;
            }
        </style>
    </defs>
    <path id="Forma_1" data-name="Forma 1" class="cls-1"
          d="M918.589,744.8a151.025,151.025,0,0,0,4.866-26.755,218.217,218.217,0,0,0,0-29.187H865.067l-1.216-136.209s27.371,29.191,42.574,63.24,18.247,72.969,18.247,72.969H949V744.8H918.589ZM840.739,868.85c-25.691,18.424-66.206,43.747-108.261,45-154.37,4.591-202.226-93.558-216.523-125.263-7.429-16.475-22.8-63.941-18.888-106.356,3.644-39.541,21.321-74.85,21.321-74.85h36.493V744.8h57.171l1.217-234.716s10.949-5.766,20.679-9.729a95.094,95.094,0,0,1,12.164-3.649V386.04H614.485V337.394H630.3s-8.312-41.553,31.627-41.349,31.627,41.349,31.627,41.349H719.1s-0.046-6.916,3.649-10.946c2.9-3.16,9.732-3.648,9.732-3.648a10.621,10.621,0,0,1,8.515,3.648c2.507,3.008,1.216,10.946,1.216,10.946h63.254V386.04H775.052V496.709s9.508,2.586,18.246,6.081a102.793,102.793,0,0,1,12.165,6.081V744.8H918.589S909.348,819.649,840.739,868.85Zm-34.06-359.979V437.118h57.172V551.436a286.314,286.314,0,0,0-27.978-24.323A240.968,240.968,0,0,0,806.679,508.871Zm-29.8-233.5a26.147,26.147,0,1,1,26.153-26.147A26.15,26.15,0,0,1,776.877,275.37Zm-95.489-43.781a52.295,52.295,0,1,1,52.306-52.295A52.3,52.3,0,0,1,681.388,231.589ZM517.172,607.379H460V551.436h94.881l-1.217-57.159H460V437.118H612.052v72.969S581.442,526.756,559.746,549C534.3,575.1,517.172,607.379,517.172,607.379Z"/>
</svg>
